Poster: 
http://www.hindustantimes.com/Images/Popup/2012/9/JTHJ-poster.jpg

Info:
General
Format : MPEG-PS
File size : 963 MiB
Duration : 2h 38mn
Overall bit rate mode : Variable
Overall bit rate : 850 Kbps
Video #224
ID : 224 (0xE0)
Format : MPEG Video
Format version : Version 2
Format profile : Main@Main
Format settings, BVOP : Yes
Format settings, Matrix : Default
Duration : 2h 38mn
Bit rate mode : Variable
Bit rate : 705 Kbps
Maximum bit rate : 9 672 Kbps
Width : 352 pixels
Height : 288 pixels
Display aspect ratio : 4:3
Frame rate : 25.000 fps
Standard : PAL
Color space : YUV
Chroma subsampling : 4:2:0
Bit depth : 8 bits
Scan type : Progressive
Compression mode : Lossy
Bits/(Pixel*Frame) : 0.278
Stream size : 799 MiB (83%)
Audio #192
ID : 192 (0xC0)
Format : MPEG Audio
Format version : Version 1
Format profile : Layer 2
Duration : 2h 38mn
Bit rate mode : Constant
Bit rate : 128 Kbps
Channel(s) : 2 channels
Sampling rate : 48.0 KHz
Compression mode : Lossy
Stream size : 145 MiB (15%)

Screens: 
http://imgr.us/images/2j36al2303yx3q40csz.jpg